<?xml version="1.0" encoding="utf-8"?>
<!-- Generator: Adobe Illustrator 15.1.0, SVG Export Plug-In . SVG Version: 6.00 Build 0)  -->
<!DOCTYPE svg PUBLIC "-//W3C//DTD SVG 1.1//EN" "http://www.w3.org/Graphics/SVG/1.1/DTD/svg11.dtd">
<svg version="1.1" xmlns="http://www.w3.org/2000/svg" xmlns:xlink="http://www.w3.org/1999/xlink" x="0px" y="0px" width="20px"
	 height="20px" viewBox="0 0 20 20" enable-background="new 0 0 20 20" xml:space="preserve">
<g id="Magnifying_Glass">
	<g id="Magnifying_Glass_2_">
		<path d="M2.144,2.147c-2.858,2.853-2.858,7.494,0,10.35c2.858,2.852,7.496,2.852,10.354,0c2.854-2.856,2.854-7.498,0-10.35
			C9.64-0.715,5.001-0.715,2.144,2.147z M10.942,10.94c-1.996,2.005-5.242,2.005-7.245,0c-2-2.002-2-5.249,0-7.242
			c2.003-2.002,5.249-2.002,7.245,0C12.946,5.691,12.946,8.938,10.942,10.94z"/>
		<rect x="13.984" y="9.227" transform="matrix(0.7071 -0.7071 0.7071 0.7071 -6.2467 15.0822)" width="2.197" height="11.71"/>
	</g>
</g>
<g id="Minus">
	<rect x="3.821" y="6.568" width="6.999" height="1.314"/>
</g>
</svg>
