<?xml version="1.0" encoding="utf-8"?>
<!-- Generator: Adobe Illustrator 15.1.0, SVG Export Plug-In . SVG Version: 6.00 Build 0)  -->
<!DOCTYPE svg PUBLIC "-//W3C//DTD SVG 1.1//EN" "http://www.w3.org/Graphics/SVG/1.1/DTD/svg11.dtd">
<svg version="1.1" id="Calculator" xmlns="http://www.w3.org/2000/svg" xmlns:xlink="http://www.w3.org/1999/xlink" x="0px" y="0px"
	 width="12px" height="16px" viewBox="0 0 12 16" enable-background="new 0 0 12 16" xml:space="preserve">
<path fill="#FFFFFF" d="M0,0v16h12V0H0z M2,6h2v2H2V6z M4,14H2v-2h2V14z M4,11H2V9h2V11z M7,14H5v-2h2V14z M7,11H5V9h2V11z M7,8H5V6
	h2V8z M10,14H8V9h2V14z M10,8H8V6h2V8z M10,4H2V2h8V4z"/>
</svg>
